<mxfile host="app.diagrams.net">
  <diagram name="UC10 - Tải lên file các Cài đặt kịch bản" id="6I1N8m0U1Wz7Zo1kO7Kj">
    <mxGraphModel dx="1186" dy="659" grid="1" gridSize="10" guides="1" tooltips="1" connect="1" arrows="1" fold="1" page="1" pageScale="1" pageWidth="827" pageHeight="1169" math="0" shadow="0">
      <root>
        <mxCell id="0" />
        <mxCell id="1" parent="0" />
        
        <!-- Start -->
        <mxCell id="start" value="" style="shape=ellipse;perimeter=ellipsePerimeter;whiteSpace=wrap;html=1;fillColor=#000000;" vertex="1" parent="1">
          <mxGeometry x="80" y="40" width="30" height="30" as="geometry" />
        </mxCell>

        <!-- Step 1: Nhấn nút "Nhập file" -->
        <mxCell id="step1" value="Nhấn nút 'Nhập file'" style="rounded=1;whiteSpace=wrap;html=1;" vertex="1" parent="1">
          <mxGeometry x="40" y="100" width="150" height="50" as="geometry" />
        </mxCell>

        <!-- Step 2: Hiển thị modal chọn file -->
        <mxCell id="step2" value="Hiển thị modal chọn file" style="rounded=1;whiteSpace=wrap;html=1;fillColor=#e1f5fe;" vertex="1" parent="1">
          <mxGeometry x="240" y="100" width="180" height="50" as="geometry" />
        </mxCell>

        <!-- Step 3: Chọn file tải lên -->
        <mxCell id="step3" value="Chọn file tải lên" style="rounded=1;whiteSpace=wrap;html=1;" vertex="1" parent="1">
          <mxGeometry x="40" y="180" width="150" height="50" as="geometry" />
        </mxCell>

        <!-- Step 4: Kiểm tra file -->
        <mxCell id="step4" value="Kiểm tra file hợp lệ" style="rounded=1;whiteSpace=wrap;html=1;fillColor=#e1f5fe;" vertex="1" parent="1">
          <mxGeometry x="240" y="180" width="180" height="50" as="geometry" />
        </mxCell>

        <!-- Step 5: Hiển thị preview -->
        <mxCell id="step5" value="Hiển thị preview dữ liệu" style="rounded=1;whiteSpace=wrap;html=1;fillColor=#e1f5fe;" vertex="1" parent="1">
          <mxGeometry x="240" y="260" width="180" height="50" as="geometry" />
        </mxCell>

        <!-- Step 6: Bấm nút Hoàn thành -->
        <mxCell id="step6" value="Bấm nút 'Hoàn thành'" style="rounded=1;whiteSpace=wrap;html=1;" vertex="1" parent="1">
          <mxGeometry x="40" y="260" width="150" height="50" as="geometry" />
        </mxCell>

        <!-- Step 7: Hiển thị thông báo -->
        <mxCell id="step7" value="Thông báo thành công" style="rounded=1;whiteSpace=wrap;html=1;fillColor=#e1f5fe;" vertex="1" parent="1">
          <mxGeometry x="240" y="340" width="180" height="50" as="geometry" />
        </mxCell>

        <!-- End -->
        <mxCell id="end" value="" style="shape=ellipse;perimeter=ellipsePerimeter;whiteSpace=wrap;html=1;fillColor=#000000;" vertex="1" parent="1">
          <mxGeometry x="320" y="420" width="30" height="30" as="geometry" />
        </mxCell>

        <!-- Exception E1 -->
        <mxCell id="e1" value="E1: File không hợp lệ ➝ Thông báo lỗi ➝ Quay lại bước Chọn File" style="rounded=1;whiteSpace=wrap;html=1;fillColor=#ffebee;" vertex="1" parent="1">
          <mxGeometry x="500" y="180" width="240" height="70" as="geometry" />
        </mxCell>

        <!-- Connectors -->
        <mxCell id="line1" style="endArrow=block;" edge="1" parent="1" source="start" target="step1">
          <mxGeometry relative="1" as="geometry" />
        </mxCell>
        <mxCell id="line2" style="endArrow=block;" edge="1" parent="1" source="step1" target="step2">
          <mxGeometry relative="1" as="geometry" />
        </mxCell>
        <mxCell id="line3" style="endArrow=block;" edge="1" parent="1" source="step2" target="step3">
          <mxGeometry relative="1" as="geometry" />
        </mxCell>
        <mxCell id="line4" style="endArrow=block;" edge="1" parent="1" source="step3" target="step4">
          <mxGeometry relative="1" as="geometry" />
        </mxCell>
        <mxCell id="line5" style="endArrow=block;" edge="1" parent="1" source="step4" target="step5">
          <mxGeometry relative="1" as="geometry" />
        </mxCell>
        <mxCell id="line6" style="endArrow=block;" edge="1" parent="1" source="step5" target="step6">
          <mxGeometry relative="1" as="geometry" />
        </mxCell>
        <mxCell id="line7" style="endArrow=block;" edge="1" parent="1" source="step6" target="step7">
          <mxGeometry relative="1" as="geometry" />
        </mxCell>
        <mxCell id="line8" style="endArrow=block;" edge="1" parent="1" source="step7" target="end">
          <mxGeometry relative="1" as="geometry" />
        </mxCell>
        <mxCell id="line9" style="endArrow=block;dashed=1;" edge="1" parent="1" source="step4" target="e1">
          <mxGeometry relative="1" as="geometry" />
        </mxCell>
        <mxCell id="line10" style="endArrow=block;dashed=1;" edge="1" parent="1" source="e1" target="step3">
          <mxGeometry relative="1" as="geometry" />
        </mxCell>

      </root>
    </mxGraphModel>
  </diagram>
</mxfile>
